<mxfile host="app.diagrams.net" modified="2023-09-14T16:02:33.864Z" agent="Mozilla/5.0 (Windows NT 10.0; Win64; x64) AppleWebKit/537.36 (KHTML, like Gecko) Chrome/116.0.0.0 Safari/537.36" etag="3kIc28R7a2vX_fgGtaza" version="21.7.5" type="device">
  <diagram name="Pagina-1" id="1FFT8CL7EdeJG9rm2vaP">
    <mxGraphModel dx="4513" dy="1103" grid="1" gridSize="10" guides="1" tooltips="1" connect="1" arrows="1" fold="1" page="1" pageScale="1" pageWidth="1500" pageHeight="500" math="1" shadow="0">
      <root>
        <mxCell id="0" />
        <mxCell id="1" parent="0" />
        <mxCell id="kqU26M08DJfGydk8MjjA-18" value="" style="rounded=0;whiteSpace=wrap;html=1;fillColor=#f8cecc;strokeColor=default;strokeWidth=2;" parent="1" vertex="1">
          <mxGeometry x="110" y="290" width="120" height="20" as="geometry" />
        </mxCell>
        <mxCell id="XkTZ3HTlFhmpuNYZVsJf-6" value="" style="edgeStyle=orthogonalEdgeStyle;rounded=0;orthogonalLoop=1;jettySize=auto;html=1;strokeWidth=2;" edge="1" parent="1" source="kqU26M08DJfGydk8MjjA-19" target="XkTZ3HTlFhmpuNYZVsJf-2">
          <mxGeometry relative="1" as="geometry" />
        </mxCell>
        <mxCell id="kqU26M08DJfGydk8MjjA-19" value="" style="rounded=0;whiteSpace=wrap;html=1;fillColor=#dae8fc;strokeColor=default;strokeWidth=2;" parent="1" vertex="1">
          <mxGeometry x="110" y="310" width="120" height="20" as="geometry" />
        </mxCell>
        <mxCell id="XkTZ3HTlFhmpuNYZVsJf-16" style="edgeStyle=orthogonalEdgeStyle;rounded=0;orthogonalLoop=1;jettySize=auto;html=1;exitX=0.5;exitY=1;exitDx=0;exitDy=0;entryX=0.5;entryY=0;entryDx=0;entryDy=0;strokeWidth=2;" edge="1" parent="1" source="kqU26M08DJfGydk8MjjA-20" target="XkTZ3HTlFhmpuNYZVsJf-14">
          <mxGeometry relative="1" as="geometry" />
        </mxCell>
        <mxCell id="kqU26M08DJfGydk8MjjA-20" value="" style="rounded=0;whiteSpace=wrap;html=1;fillColor=#d5e8d4;strokeColor=default;strokeWidth=2;" parent="1" vertex="1">
          <mxGeometry x="110" y="330" width="120" height="20" as="geometry" />
        </mxCell>
        <mxCell id="kqU26M08DJfGydk8MjjA-56" value="$$\mathbf{X}$$" style="text;html=1;strokeColor=none;fillColor=none;align=center;verticalAlign=middle;whiteSpace=wrap;rounded=0;fontSize=20;" parent="1" vertex="1">
          <mxGeometry x="140" y="250" width="60" height="30" as="geometry" />
        </mxCell>
        <mxCell id="XkTZ3HTlFhmpuNYZVsJf-8" style="edgeStyle=orthogonalEdgeStyle;rounded=0;orthogonalLoop=1;jettySize=auto;html=1;exitX=1;exitY=0.5;exitDx=0;exitDy=0;entryX=0;entryY=0.5;entryDx=0;entryDy=0;strokeWidth=2;" edge="1" parent="1" source="XkTZ3HTlFhmpuNYZVsJf-2" target="XkTZ3HTlFhmpuNYZVsJf-4">
          <mxGeometry relative="1" as="geometry" />
        </mxCell>
        <mxCell id="XkTZ3HTlFhmpuNYZVsJf-2" value="MHA" style="rounded=1;whiteSpace=wrap;html=1;fontSize=18;fillColor=#f5f5f5;fontColor=#333333;strokeColor=default;strokeWidth=2;" vertex="1" parent="1">
          <mxGeometry x="280" y="295" width="120" height="50" as="geometry" />
        </mxCell>
        <mxCell id="XkTZ3HTlFhmpuNYZVsJf-3" value="" style="rounded=0;whiteSpace=wrap;html=1;fillColor=#f8cecc;strokeColor=default;strokeWidth=2;dashed=1;" vertex="1" parent="1">
          <mxGeometry x="450" y="290" width="120" height="20" as="geometry" />
        </mxCell>
        <mxCell id="XkTZ3HTlFhmpuNYZVsJf-4" value="" style="rounded=0;whiteSpace=wrap;html=1;fillColor=#dae8fc;strokeColor=default;strokeWidth=2;dashed=1;" vertex="1" parent="1">
          <mxGeometry x="450" y="310" width="120" height="20" as="geometry" />
        </mxCell>
        <mxCell id="XkTZ3HTlFhmpuNYZVsJf-5" value="" style="rounded=0;whiteSpace=wrap;html=1;fillColor=#d5e8d4;strokeColor=default;strokeWidth=2;dashed=1;" vertex="1" parent="1">
          <mxGeometry x="450" y="330" width="120" height="20" as="geometry" />
        </mxCell>
        <mxCell id="XkTZ3HTlFhmpuNYZVsJf-9" value="$$\text{MHA}\left(\mathbf{X}\right)$$" style="text;html=1;strokeColor=none;fillColor=none;align=center;verticalAlign=middle;whiteSpace=wrap;rounded=0;fontSize=20;" vertex="1" parent="1">
          <mxGeometry x="480" y="250" width="60" height="30" as="geometry" />
        </mxCell>
        <mxCell id="XkTZ3HTlFhmpuNYZVsJf-15" value="" style="edgeStyle=orthogonalEdgeStyle;rounded=0;orthogonalLoop=1;jettySize=auto;html=1;strokeWidth=2;" edge="1" parent="1" source="XkTZ3HTlFhmpuNYZVsJf-11" target="XkTZ3HTlFhmpuNYZVsJf-14">
          <mxGeometry relative="1" as="geometry" />
        </mxCell>
        <mxCell id="XkTZ3HTlFhmpuNYZVsJf-11" value="$$\mathbf{P} = \begin{bmatrix} 0 &amp;amp; 0 &amp;amp; 1 \\ 1 &amp;amp; 0 &amp;amp; 0 \\ 0 &amp;amp; 1 &amp;amp; 0 \end{bmatrix}$$" style="text;html=1;strokeColor=none;fillColor=none;align=center;verticalAlign=middle;whiteSpace=wrap;rounded=0;fontSize=20;" vertex="1" parent="1">
          <mxGeometry x="-80" y="345" width="160" height="100" as="geometry" />
        </mxCell>
        <mxCell id="XkTZ3HTlFhmpuNYZVsJf-14" value="$$\times$$" style="ellipse;whiteSpace=wrap;html=1;aspect=fixed;strokeWidth=2;fontSize=20;" vertex="1" parent="1">
          <mxGeometry x="155" y="380" width="30" height="30" as="geometry" />
        </mxCell>
        <mxCell id="XkTZ3HTlFhmpuNYZVsJf-17" value="" style="rounded=0;whiteSpace=wrap;html=1;fillColor=#f8cecc;strokeColor=default;strokeWidth=2;" vertex="1" parent="1">
          <mxGeometry x="110" y="460" width="120" height="20" as="geometry" />
        </mxCell>
        <mxCell id="XkTZ3HTlFhmpuNYZVsJf-18" value="" style="rounded=0;whiteSpace=wrap;html=1;fillColor=#dae8fc;strokeColor=default;strokeWidth=2;" vertex="1" parent="1">
          <mxGeometry x="110" y="480" width="120" height="20" as="geometry" />
        </mxCell>
        <mxCell id="XkTZ3HTlFhmpuNYZVsJf-19" value="" style="rounded=0;whiteSpace=wrap;html=1;fillColor=#d5e8d4;strokeColor=default;strokeWidth=2;" vertex="1" parent="1">
          <mxGeometry x="110" y="440" width="120" height="20" as="geometry" />
        </mxCell>
        <mxCell id="XkTZ3HTlFhmpuNYZVsJf-20" style="edgeStyle=orthogonalEdgeStyle;rounded=0;orthogonalLoop=1;jettySize=auto;html=1;exitX=0.5;exitY=1;exitDx=0;exitDy=0;entryX=0.5;entryY=0;entryDx=0;entryDy=0;strokeWidth=2;" edge="1" parent="1">
          <mxGeometry relative="1" as="geometry">
            <mxPoint x="169.66" y="410" as="sourcePoint" />
            <mxPoint x="169.66" y="440" as="targetPoint" />
          </mxGeometry>
        </mxCell>
        <mxCell id="XkTZ3HTlFhmpuNYZVsJf-21" value="$$\mathbf{P}\mathbf{X}$$" style="text;html=1;strokeColor=none;fillColor=none;align=center;verticalAlign=middle;whiteSpace=wrap;rounded=0;fontSize=20;" vertex="1" parent="1">
          <mxGeometry x="140" y="510" width="60" height="30" as="geometry" />
        </mxCell>
        <mxCell id="XkTZ3HTlFhmpuNYZVsJf-22" value="" style="edgeStyle=orthogonalEdgeStyle;rounded=0;orthogonalLoop=1;jettySize=auto;html=1;strokeWidth=2;" edge="1" parent="1" target="XkTZ3HTlFhmpuNYZVsJf-24">
          <mxGeometry relative="1" as="geometry">
            <mxPoint x="230" y="470" as="sourcePoint" />
          </mxGeometry>
        </mxCell>
        <mxCell id="XkTZ3HTlFhmpuNYZVsJf-23" style="edgeStyle=orthogonalEdgeStyle;rounded=0;orthogonalLoop=1;jettySize=auto;html=1;exitX=1;exitY=0.5;exitDx=0;exitDy=0;entryX=0;entryY=0.5;entryDx=0;entryDy=0;strokeWidth=2;" edge="1" parent="1" source="XkTZ3HTlFhmpuNYZVsJf-24" target="XkTZ3HTlFhmpuNYZVsJf-25">
          <mxGeometry relative="1" as="geometry" />
        </mxCell>
        <mxCell id="XkTZ3HTlFhmpuNYZVsJf-24" value="MHA" style="rounded=1;whiteSpace=wrap;html=1;fontSize=18;fillColor=#f5f5f5;fontColor=#333333;strokeColor=default;strokeWidth=2;" vertex="1" parent="1">
          <mxGeometry x="280" y="445" width="120" height="50" as="geometry" />
        </mxCell>
        <mxCell id="XkTZ3HTlFhmpuNYZVsJf-25" value="" style="rounded=0;whiteSpace=wrap;html=1;fillColor=#f8cecc;strokeColor=default;strokeWidth=2;dashed=1;" vertex="1" parent="1">
          <mxGeometry x="450" y="460" width="120" height="20" as="geometry" />
        </mxCell>
        <mxCell id="XkTZ3HTlFhmpuNYZVsJf-26" value="" style="rounded=0;whiteSpace=wrap;html=1;fillColor=#dae8fc;strokeColor=default;strokeWidth=2;dashed=1;" vertex="1" parent="1">
          <mxGeometry x="450" y="480" width="120" height="20" as="geometry" />
        </mxCell>
        <mxCell id="XkTZ3HTlFhmpuNYZVsJf-27" value="" style="rounded=0;whiteSpace=wrap;html=1;fillColor=#d5e8d4;strokeColor=default;strokeWidth=2;dashed=1;" vertex="1" parent="1">
          <mxGeometry x="450" y="440" width="120" height="20" as="geometry" />
        </mxCell>
        <mxCell id="XkTZ3HTlFhmpuNYZVsJf-28" value="$$\mathbf{P}\;\text{MHA}\left(\mathbf{X}\right)$$" style="text;html=1;strokeColor=none;fillColor=none;align=center;verticalAlign=middle;whiteSpace=wrap;rounded=0;fontSize=20;" vertex="1" parent="1">
          <mxGeometry x="480" y="400" width="60" height="30" as="geometry" />
        </mxCell>
      </root>
    </mxGraphModel>
  </diagram>
</mxfile>
